PathFileType	4	(X/Y/Z)	C:\Users\willi\Desktop\Data_PaperCallum_v2\17_Akif\Gait03\marker_experimental_temp.trc
DataRate	CameraRate	NumFrames	NumMarkers	Units	OrigDataRate	OrigDataStartFrame	OrigNumFrames
100.000000	100.000000	6	27	mm	100.000000	79	158
Frame#	Time	C7			T10			Clav			Sternum			Right_Back			PCL_CRAN			PCL_RECHTS			PCL_LINKS			RCL_UL_CRAN			RCL_UL_POST			RCL_UL_ANT			RCL_LL_CRAN			RCL_LL_POST			RCL_LL_ANT			Right_Heel			Right_Toe			Right_M5			LCL_UL_CRAN			LCL_UL_POST			LCL_UL_ANT			LCL_LL_CRAN			LCL_LL_POST			LCL_LL_ANT			Left_Heel			Left_Toe			Left_M5			*26			
		X1	Y1	Z1	X2	Y2	Z2	X3	Y3	Z3	X4	Y4	Z4	X5	Y5	Z5	X6	Y6	Z6	X7	Y7	Z7	X8	Y8	Z8	X9	Y9	Z9	X10	Y10	Z10	X11	Y11	Z11	X12	Y12	Z12	X13	Y13	Z13	X14	Y14	Z14	X15	Y15	Z15	X16	Y16	Z16	X17	Y17	Z17	X18	Y18	Z18	X19	Y19	Z19	X20	Y20	Z20	X21	Y21	Z21	X22	Y22	Z22	X23	Y23	Z23	X24	Y24	Z24	X25	Y25	Z25	X26	Y26	Z26	X27	Y27	Z27	

80	0.79	301.686798095703	1414.813110351563	221.5916748046875	340.9383239746093	1196.214477539063	225.2428588867187	160.8634948730468	1339.356689453125	217.5069732666016	101.3414993286132	1176.246948242188	221.9440612792969	344.1878662109374	1354.257690429688	109.3889465332031	331.9242858886718	1026.751708984375	219.1421661376953	342.8701782226562	968.11279296875	195.569351196289	340.7114257812499	966.99951171875	246.0799102783203	190.3873443603515	734.3907470703125	26.60140991210936	193.681640625	669.5540161132813	30.04639434814452	148.2888793945312	686.2363891601563	17.02142143249511	205.3572998046875	414.5377807617188	29.65360832214354	263.1674499511719	382.5765991210938	33.6525421142578	222.3746337890625	351.1247863769531	34.31712341308592	473.4430847167969	190.6311950683594	141.1276702880859	323.4164428710938	75.39754486083986	105.5647964477539	372.6642456054688	89.05513000488284	59.85059356689451	205.1149139404297	752.5753784179688	381.4931030273438	214.9298553466797	688.4808959960938	372.1865234375	166.8003845214843	699.5384521484375	377.4619140625	234.9146270751953	372.9539184570313	339.6477355957031	262.5920104980469	314.0029602050781	340.972412109375	212.4542388916016	311.4976806640625	332.6734008789063	334.5035400390625	35.28057098388674	251.4733581542968	127.4087524414063	30.85418319702149	249.1042175292969	172.9347839355469	10.41855049133302	313.5606079101563	-88.07061004638696	726.4996948242188	-3209.71240234375	
81	0.8	288.0531921386718	1415.610961914063	221.4037780761718	327.4744873046874	1197.093994140625	225.1568145751953	147.3311462402343	1340.07958984375	217.0521697998047	88.04067993164057	1176.87109375	222.0883026123047	330.8152465820312	1354.893432617188	109.6375885009765	318.5156860351562	1027.61181640625	218.4315338134765	329.3946228027343	969.107421875	194.4776000976562	327.5834655761718	967.7420043945313	245.0088500976562	171.9149322509765	737.0694580078125	25.76825523376464	173.7619171142578	671.9148559570313	29.50874519348143	128.7793579101562	689.7725830078125	16.52421760559081	179.1906585693359	415.5675659179688	29.84191703796386	235.3594055175781	380.8521728515625	33.88597488403319	193.1412506103515	351.2821044921875	34.12036514282225	436.4872436523438	177.4231567382813	141.1931915283203	279.6839904785156	73.08992004394533	100.7538299560547	330.0806579589844	84.90943145751955	56.22466659545896	195.8939971923828	752.88818359375	380.7302856445313	206.7190093994141	689.0498046875	370.7773132324219	158.4837036132812	699.2679443359375	376.8908081054688	233.3646392822266	373.865478515625	338.989501953125	261.6718139648438	315.167236328125	340.327880859375	211.4320526123047	312.2515869140625	332.7087707519531	334.2033996582031	36.24856567382815	250.9850616455078	127.2860107421875	30.73643684387208	249.2140197753906	172.9731750488282	10.4419174194336	313.5785217285156	-88.06988525390649	726.4978637695313	-3209.701171875	
82	0.8100000000000001	274.4374084472655	1416.1376953125	221.1302947998047	314.0277709960937	1197.7158203125	224.9168243408203	133.7974700927734	1340.534790039063	216.5825042724609	74.73632812499994	1177.229370117188	222.254638671875	317.3948059082031	1355.278076171875	109.7932891845703	305.1134643554687	1028.221313476563	217.5483703613281	315.9049682617187	969.8328857421875	193.251724243164	314.4804992675781	968.2525634765625	243.8004608154297	153.5872192382812	739.4744873046875	25.01432037353515	154.1321716308593	674.0626220703125	28.89995765686034	109.4507293701171	692.98583984375	16.32098197937011	153.4217224121093	415.9983215332031	30.22997283935546	207.669204711914	378.4510498046875	34.0576934814453	164.0418701171875	350.9880676269531	34.14934158325195	398.2546081542969	163.3360137939453	141.1938323974609	235.3727111816406	70.53709411621095	96.37990570068358	286.8123168945313	80.2415237426758	52.93655776977538	186.7789611816406	753.1007690429688	379.9729309082031	198.7071838378906	689.5708618164063	369.3777160644531	150.3454284667968	698.8887329101563	376.2288208007813	231.8516387939453	374.8242492675781	338.2888793945313	260.7986145019531	316.3995971679688	339.6338806152344	210.4922485351563	313.0873413085938	332.6755676269531	333.9046020507813	37.27367782592776	250.4224090576172	127.1737213134766	30.62767219543458	249.3476409912109	173.0246887207032	10.46949100494386	313.5986022949219	-88.06917572021509	726.4961547851563	-3209.68994140625	
83	0.8200000000000001	260.824005126953	1416.385131835938	220.7716522216797	300.5844421386718	1198.073364257813	224.5188293457031	120.2447814941406	1340.712890625	216.0932922363281	61.41595077514643	1177.31005859375	222.4290924072266	303.9149780273437	1355.408813476563	109.85546875	291.7117919921874	1028.568481445313	216.4930572509765	302.3937072753906	970.2723388671875	191.9013366699218	301.3932495117187	968.5226440429688	242.4634552001953	135.4279327392578	741.5665283203125	24.36321449279784	134.7892608642578	675.9905395507813	28.18640899658202	90.29242706298824	695.8583374023438	16.406831741333	128.1128845214843	415.8302001953125	30.79910469055175	180.1565704345703	375.4241027832031	34.29425048828124	135.1683959960937	350.2850341796875	34.37592697143554	358.6993408203125	148.5858001708985	141.0985107421875	190.4746551513672	67.85062408447267	92.53366851806639	242.8086547851563	75.15135192871095	50.01490402221678	177.7286071777343	753.2075805664063	379.22021484375	190.8406829833984	690.0226440429688	368.0928649902344	142.3278656005859	698.3973999023438	375.45361328125	230.2420349121094	375.7920837402344	337.5467834472656	259.8601379394531	317.6796875	338.9364013671875	209.5606536865234	313.9332275390625	332.4793395996094	333.6144714355469	38.35498809814455	249.8008728027343	127.0682144165039	30.53235244750977	249.4986114501953	173.0887451171875	10.5004758834839	313.6150817871094	-88.06848907470727	726.4944458007813	-3209.67919921875	
84	0.8300000000000001	247.1982269287109	1416.348510742188	220.3280181884765	287.1303405761718	1198.1630859375	223.9609680175781	106.6565628051757	1340.608032226563	215.5786437988281	48.06727981567377	1177.104858398438	222.5974731445313	290.3666381835937	1355.283569335938	109.8246154785156	278.3036193847656	1028.644165039063	215.266616821289	288.8522338867187	970.4126586914063	190.4346771240234	288.3110961914062	968.5453491210938	241.0052642822265	117.4816207885742	743.3023071289063	23.83611869812011	115.7254562377929	677.6784057617188	27.38684272766113	71.31537628173824	698.3753662109375	16.74806213378906	103.3300399780273	415.0774230957031	31.52806854248046	152.88232421875	371.8225708007813	34.67262268066406	106.6100692749023	349.2174682617188	34.76536560058593	317.785400390625	133.4197692871094	140.8797149658203	144.9808044433594	65.16588592529298	89.2741241455078	198.0146484375	69.78089141845705	47.462345123291	168.7019348144531	753.2021484375	378.4734497070313	183.050048828125	690.3753051757813	367.0027770996094	134.3642120361328	697.791259765625	374.5695190429688	228.4026947021484	376.7301635742188	336.7591857910156	258.731201171875	318.9779052734375	338.2632751464844	208.5232391357422	314.7219848632813	332.0512084960938	333.3375854492188	39.49423599243166	249.1354522705078	126.967025756836	30.45256614685059	249.6595764160156	173.1664733886719	10.53550052642823	313.620849609375	-88.06781768798852	726.4927368164063	-3209.668701171875	
85	0.84	233.5462493896484	1416.026489257813	219.7993621826172	273.6509399414062	1197.983520507813	223.2436828613281	93.01770019531243	1340.218627929688	215.0316772460938	34.67813491821283	1176.610717773438	222.7456970214844	276.7428283691406	1354.90185546875	109.7022399902344	264.8801879882812	1028.44189453125	213.8707733154297	275.2702331542968	970.24462890625	188.8584442138672	275.2212219238281	968.3156127929688	239.4319915771484	99.81219482421871	744.6331176757813	23.45085144042968	96.94931030273433	679.088623046875	26.5707836151123	52.56319808959957	700.51513671875	17.29476928710937	79.13344573974607	413.7668151855469	32.39411544799804	125.9060516357422	367.7049865722656	35.19934463500976	78.45101165771483	347.833740234375	35.27833175659179	275.4976196289063	118.1257934570313	140.5164031982422	98.89872741699219	62.64653778076173	86.61391448974609	152.3962249755859	64.32082366943361	45.25196838378906	159.6616516113281	753.0780639648438	377.7364807128906	175.25634765625	690.5975952148438	366.1407470703125	126.3864593505859	697.0691528320313	373.6094360351563	226.2168273925781	377.6040649414063	335.9218139648438	257.2889404296875	320.2586975097656	337.6216430664063	207.241943359375	315.3996276855469	331.3616333007813	333.0742797851563	40.6930732727051	248.4345397949218	126.8688125610352	30.38703536987305	249.8233642578125	173.2610473632813	10.57664299011232	313.6089477539063	-88.0671539306643	726.4910888671875	-3209.658447265625	
